<svg width="32" height="32" viewBox="0 0 32 32" fill="none" xmlns="http://www.w3.org/2000/svg">
<path d="M17.2211 1.20013L30.799 14.778L31.9993 13.5779L18.4214 0L17.2211 1.20013Z" fill="#5221E6"/>
<path fill-rule="evenodd" clip-rule="evenodd" d="M19.2336 7.60145C18.4975 6.86534 17.3874 6.65156 16.4305 7.06163L7.00714 11.1002C5.8941 11.5773 5.03594 12.506 4.65549 13.6599C3.76246 16.3683 2.60708 19.947 1.67428 23.0061C1.20815 24.5348 0.795621 25.9403 0.498919 27.0448C0.35075 27.5964 0.229365 28.0808 0.144391 28.4717C0.0652554 28.8359 0 29.1945 0 29.453V29.8045L2.19436 31.9989H2.54586C2.80447 31.9989 3.16311 31.9337 3.52722 31.8546C3.91819 31.7696 4.40255 31.6482 4.95417 31.5001C6.05877 31.2034 7.46417 30.7908 8.99285 30.3247C12.052 29.3919 15.6306 28.2364 18.3392 27.3435C19.493 26.963 20.4217 26.1049 20.8988 24.9918L24.9374 15.5684C25.3474 14.6116 25.1336 13.5015 24.3975 12.7654L19.2336 7.60145ZM17.0992 8.62165C17.4181 8.48495 17.7881 8.55622 18.0335 8.80159L23.1973 13.9655C23.4428 14.2109 23.5141 14.5809 23.3773 14.8998L19.3387 24.3233C19.0518 24.9925 18.4955 25.5047 17.8076 25.7315C15.1052 26.6225 11.5399 27.7736 8.49784 28.7012C6.97594 29.1653 5.59147 29.5715 4.51389 29.8609C3.97444 30.0058 3.51965 30.1194 3.16676 30.1961C3.09215 30.2122 3.02327 30.2266 2.9601 30.239L11.6316 21.5675C12.5779 22.0196 13.7457 21.8536 14.5295 21.0699C15.5237 20.0756 15.5237 18.4637 14.5295 17.4695C13.5353 16.4753 11.9233 16.4753 10.9291 17.4695C10.1453 18.2533 9.97941 19.4212 10.4315 20.3674L1.7599 29.0389C1.77238 28.9758 1.78668 28.9069 1.80291 28.8322C1.87961 28.4793 1.99315 28.0245 2.13806 27.4851C2.42749 26.4075 2.83366 25.0231 3.29772 23.5012C4.22533 20.459 5.37634 16.8936 6.26738 14.1913C6.49416 13.5035 7.00635 12.9471 7.67571 12.6602L17.0992 8.62165Z" fill="#5221E6"/>
</svg>
